# xmcd
#
# Track frame offsets:
#	182
#	31520
#	102632
#	141057
#	170352
#	198245
#	211107
#	214020
#	229190
#	235690
#	245270
#	250010
#	264815
#	271732
#	281595
#	294207
#	302935
#
# Disc length: 4437 seconds
#
# Revision: 1
# Processed by: cddbd v1.5.2PL0 Copyright (c) Steve Scherf et al.
# Submitted via: audiograbber 1.83.01
#
DISCID=e2115311
DTITLE=Klassische Musik - Ludwig van Beethoven - Die Späten Streichquartette (C
DTITLE=D1) - Melos Quartett
DYEAR=1986
DGENRE=Chamber Music
TTITLE0=Streichquartett Es-dur Op 127 - 1. Maestoso - Allegro
TTITLE1=Streichquartett Es-dur Op 127 - 2. Adagio, ma non troppo e moto cantabi
TTITLE1=le - Andante con moto - Adag
TTITLE2=Streichquartett Es-dur Op 127 - 3. Scherzando vivace -Presto
TTITLE3=Streichquartett Es-dur Op 127 - 4. Finale
TTITLE4=Streichquartett cis-moll Op 131 - 1. Adagio, ma non troppo e molto espr
TTITLE4=essivo - attacca
TTITLE5=Streichquartett cis-moll Op 131 - 2. Allegro molto vivace - attaca
TTITLE6=Streichquartett cis-moll Op 131 - 3. Allegro moderato - attacca
TTITLE7=Streichquartett cis-moll Op 131 - 4.1. Andante, ma non troppo e molto c
TTITLE7=antabile
TTITLE8=Streichquartett cis-moll Op 131 - 4.2. Andante modrato e lusinghiero
TTITLE9=Streichquartett cis-moll Op 131 - 4.3. Adagio
TTITLE10=Streichquartett cis-moll Op 131 - 4.4. Allegretto
TTITLE11=Streichquartett cis-moll Op 131 - 4.5. Adagio, ma non troppo e semplic
TTITLE11=e
TTITLE12=Streichquartett cis-moll Op 131 - 4.6. Allegretto
TTITLE13=Streichquartett cis-moll Op 131 - 5.1. Presto-
TTITLE14=Streichquartett cis-moll Op 131 - 5.2. Molto poco adagio - attacca
TTITLE15=Streichquartett cis-moll Op 131 - 6. Adagio quasi un poco andante - at
TTITLE15=tacca
TTITLE16=Streichquartett cis-moll Op 131 - 7. Allegro
EXTD=YEAR: 1986\n
EXTT0=
EXTT1=
EXTT2=
EXTT3=
EXTT4=
EXTT5=
EXTT6=
EXTT7=
EXTT8=
EXTT9=
EXTT10=
EXTT11=
EXTT12=
EXTT13=
EXTT14=
EXTT15=
EXTT16=
PLAYORDER=
